stateDiagram-v2
[*] --> 款式取消 : 款式取消
等待设计稿完成 --> 等待产前样 : 设计稿已完成
等待产前样 --> 寄送整理已完成 : 寄送整理
寄送整理已完成 --> 预审通过 : 预审通过
预审通过 --> 正式审核中 : 送审
正式审核中 --> 审核通过 : 审核通过
正式审核中 --> 审核未通过 : 审核未通过
正式审核中 --> 审核通过（有修改） : 审核通过（有修改）
审核通过 --> 已通知客户 : 已通知客户
审核未通过 --> 客户修改中 : 通知客户未通过
客户修改中 --> 寄送整理已完成 : 寄送整理
审核通过（有修改） --> 已通知客户 : 通知客户修改
